<svg width="321" height="75" viewBox="0 0 321 75" xmlns="http://www.w3.org/2000/svg"><title>logo</title><g fill="none"><path fill="#3D97D3" d="M8.834 74.251v-23.57H.355v-5.436H23.49v5.436h-8.437v23.57zM25.016 59.77c0-8.741 6.393-15.003 15.134-15.003 8.784 0 15.177 6.262 15.177 15.003S48.934 74.773 40.15 74.773c-8.742-.001-15.134-6.262-15.134-15.003zm23.962 0c0-5.436-3.479-9.523-8.828-9.523-5.35 0-8.785 4.087-8.785 9.523 0 5.393 3.436 9.524 8.785 9.524 5.348-.001 8.828-4.132 8.828-9.524zm10.703 14.481V45.245h13.568c6.306 0 9.741 4.262 9.741 9.35 0 5.044-3.479 9.35-9.741 9.35h-7.393v10.307h-6.175v-.001zm17.004-19.656c0-2.436-1.826-3.914-4.262-3.914h-6.566v7.828h6.566c2.435-.001 4.262-1.523 4.262-3.914z"/><path d="M103.217 74.251L97.52 63.944h-4.522v10.307h-6.176V45.245h13.568c6.045 0 9.741 3.958 9.741 9.35 0 5.131-3.218 7.871-6.35 8.61l6.523 11.046h-7.087zm.608-19.656c0-2.436-1.87-3.914-4.349-3.914h-6.479v7.828h6.479c2.479-.001 4.349-1.479 4.349-3.914zm10.963 8.088V45.245h6.263v17.221c0 4.044 2.348 6.828 6.827 6.828s6.784-2.783 6.784-6.828V45.245h6.306V62.64c0 7.219-4.262 12.133-13.09 12.133s-13.09-4.958-13.09-12.09zm29.925 7.48l3.349-4.697a12.718 12.718 0 0 0 9.219 3.914c3.393 0 5.045-1.565 5.045-3.218 0-5.131-16.699-1.609-16.699-12.524 0-4.827 4.175-8.828 11.002-8.828 4.61 0 8.438 1.392 11.308 4.044l-3.436 4.522c-2.349-2.174-5.479-3.175-8.437-3.175-2.653 0-4.132 1.174-4.132 2.914 0 4.609 16.656 1.522 16.656 12.35 0 5.306-3.783 9.306-11.611 9.306-5.567.001-9.568-1.868-12.264-4.608z" fill="#6A7686"/><path d="M171.375 59.77c0-8.915 6.74-15.003 15.438-15.003 6.393 0 10.09 3.479 12.134 7.088l-5.306 2.609c-1.218-2.349-3.826-4.218-6.828-4.218-5.262 0-9.088 4.044-9.088 9.523s3.826 9.524 9.088 9.524c3.002 0 5.61-1.827 6.828-4.218l5.306 2.565c-2.087 3.61-5.741 7.132-12.134 7.132-8.698 0-15.438-6.087-15.438-15.002zm47.668 14.481l-5.697-10.307h-4.523v10.307h-6.175V45.245h13.568c6.044 0 9.741 3.958 9.741 9.35 0 5.131-3.219 7.871-6.35 8.61l6.523 11.046h-7.087zm.608-19.656c0-2.436-1.87-3.914-4.349-3.914h-6.48v7.828h6.48c2.479-.001 4.349-1.479 4.349-3.914zm10.964 19.656V45.245h20.525v5.436h-14.35v6.132h14.046v5.436H236.79v6.566h14.351v5.436zm25.357 0V45.245h11.438c9.089 0 15.395 5.784 15.395 14.525s-6.306 14.481-15.395 14.481h-11.438zm20.526-14.481c0-5.131-3.131-9.089-9.089-9.089h-5.263v18.134h5.263c5.74 0 9.089-4.131 9.089-9.045zm10.703 14.481V45.245h6.175v29.006zm18.613 0v-23.57h-8.479v-5.436h23.136v5.436h-8.438v23.57z" fill="#3D97D3"/><path fill="#EE2964" d="M144.912 19.969h6.969V30h-6.969z"/><path fill="#697686" d="M168.943 0h6.969v30h-6.969z"/><path fill="#3B97D3" d="M156.912 9.969h6.969V30h-6.969z"/></g></svg>