<svg width="38" height="30" viewBox="0 0 38 30" xmlns="http://www.w3.org/2000/svg"><title>i3</title><path d="M10.304 0l5.516 4.373c-3.331 1.871-7.077 6.243-7.909 9.782.313-.106 1.144-.21 1.976-.21 3.748 0 6.765 2.915 6.765 7.18s-3.538 7.91-7.805 7.91C4.163 29.036 0 25.288 0 18.627 0 11.137 4.163 4.373 10.304 0zm20.604 0l5.516 4.373c-3.33 1.871-7.181 6.243-7.909 9.782.313-.106 1.145-.21 1.977-.21 3.748 0 6.661 2.915 6.661 7.18s-3.538 7.91-7.805 7.91c-4.683 0-8.846-3.748-8.846-10.408 0-7.49 4.163-14.254 10.406-18.627z" fill="#6a7485"/></svg>