<svg width="36" height="36" viewBox="0 0 36 36" xmlns="http://www.w3.org/2000/svg"><path d="M18 .5a17.4 17.4 0 0 0-8.434 2.172l.784.784A16.331 16.331 0 0 1 18 1.56c9.065 0 16.439 7.375 16.439 16.439 0 3.584-1.155 6.901-3.109 9.605l-1.502-1.502-1.073 5.005 5.005-1.073-1.673-1.673A17.396 17.396 0 0 0 35.5 17.999C35.5 8.351 27.65.5 18 .5zm0 2.651a.53.53 0 1 0 0 1.06.53.53 0 0 0 0-1.06zm2.807.275a.531.531 0 1 0-.024 1.062.531.531 0 0 0 .024-1.062zm-5.597.001a.526.526 0 0 0-.522.633.531.531 0 1 0 .522-.633zm-2.685.814a.53.53 0 0 0-.494.734.53.53 0 1 0 .98-.406.532.532 0 0 0-.486-.328zm10.965 0a.53.53 0 0 0-.214 1.02.53.53 0 1 0 .405-.98.535.535 0 0 0-.191-.04zm-16.245.651L2.241 5.965l1.672 1.672A17.404 17.404 0 0 0 .5 18c0 9.649 7.851 17.5 17.5 17.5 3.056 0 5.931-.789 8.434-2.172l-.783-.784a16.331 16.331 0 0 1-7.65 1.896c-9.065 0-16.439-7.375-16.439-16.439 0-3.584 1.155-6.902 3.109-9.605l1.502 1.502 1.072-5.006zm18.719.672a.529.529 0 1 0 .431.825.53.53 0 0 0-.145-.736h-.001a.527.527 0 0 0-.285-.089zm2.168 1.781a.53.53 0 1 0 .367.155.53.53 0 0 0-.367-.155zm-10.831 1.64c-2.104 0-4.001 1.137-5.387 2.236-1.385 1.099-2.281 2.202-2.281 2.202l-.511.63.782.216s.271.073.578.354c.307.282.624.732.624 1.616 0 1.462.24 2.633.288 2.856a1.142 1.142 0 0 0-.288.761c0 .306.084.55.152.791.034.121.067.232.089.315.022.084.024.167.024.086 0 .537.402.922.895 1.068.3 2.496 2.136 4.506 4.57 5.005.323.251.719.424 1.164.424.445 0 .842-.173 1.164-.424 2.434-.498 4.27-2.509 4.57-5.005.492-.146.895-.531.895-1.068 0 .081.002-.002.023-.086.021-.083.056-.194.089-.315.068-.241.152-.485.152-.791 0-.287-.104-.535-.269-.735.021-.203.269-2.602.269-4.058 0-1.554-.563-2.716-1.39-3.449-.756-.669-1.698-.947-2.597-.997-.103-.184-.168-.386-.593-.723-.59-.468-1.563-.909-3.012-.909zm12.61.529zm-12.61.531c1.24 0 1.943.354 2.354.681.411.326.506.583.506.583l.136.327h.354c.746 0 1.55.242 2.149.773.6.531 1.032 1.347 1.032 2.654 0 .339-.017.758-.041 1.195a4.02 4.02 0 0 0-1.533-2.64 4.875 4.875 0 0 0-1.557-.815l-.375-.102-.21.326s-.11.203-.618.487c-.509.285-1.384.596-2.825.596-.818 0-1.878.286-2.804.933-.771.539-1.432 1.373-1.635 2.466a12.742 12.742 0 0 1-.069-1.271c0-1.159-.479-1.949-.967-2.398-.145-.132-.163-.092-.299-.176.261-.302.653-.805 1.673-1.614 1.29-1.021 3.019-2.005 4.729-2.005zm13.932 1.945a.53.53 0 0 0-.494.733.53.53 0 0 0 .98-.406.53.53 0 0 0-.486-.327zm-26.449.001a.53.53 0 0 0-.214 1.02.53.53 0 1 0 .406-.98.528.528 0 0 0-.192-.04zm15.835 1.94c.148.048.489.135.987.524.597.466 1.166 1.174 1.166 2.396v3.241l.792-.447.038-.02c.122.024.23.099.23.231 0 .014-.048.274-.112.503-.032.114-.065.229-.094.337-.027.107-.059.18-.059.353a.127.127 0 0 1-.133.133h-.648l-.026.503a4.765 4.765 0 0 1-3.919 4.442l-.15.026-.112.104a.846.846 0 0 1-1.158 0l-.113-.104-.15-.026a4.766 4.766 0 0 1-3.918-4.442l-.027-.503h-.648a.127.127 0 0 1-.133-.133c0-.173-.031-.245-.059-.353-.028-.108-.061-.223-.093-.337a5.174 5.174 0 0 1-.113-.503c0-.133.108-.207.231-.231l.039.02.791.447V18.2c0-1.072.529-1.783 1.25-2.287s1.65-.742 2.197-.742c1.595 0 2.665-.352 3.341-.73.411-.23.449-.342.603-.51zm11.427.745zm-28.074.001a.53.53 0 0 0-.118 1.05h.002a.531.531 0 1 0 .116-1.05zm-.29 2.793a.53.53 0 1 0 0 1.06.53.53 0 0 0 0-1.06zm28.637 0a.53.53 0 1 0 0 1.06.53.53 0 0 0 0-1.06zm-16.97 2.121a.53.53 0 1 0 0 1.06.53.53 0 0 0 0-1.06zm5.303 0a.53.53 0 1 0 0 1.06.53.53 0 0 0 0-1.06zm-16.692.672zm28.098 0a.531.531 0 1 0-.026 1.062.531.531 0 0 0 .026-1.062zm-.818 2.685a.53.53 0 0 0-.215 1.019.53.53 0 0 0 .406-.979.518.518 0 0 0-.191-.04zm-26.464.001a.53.53 0 0 0-.494.732.53.53 0 1 0 .981-.405.53.53 0 0 0-.487-.327zm1.326 2.475a.53.53 0 1 0-.011 1.058.53.53 0 0 0 .011-1.058zm1.781 2.17a.531.531 0 1 0-.012 1.062.531.531 0 0 0 .012-1.062zm2.173 1.78a.529.529 0 0 0-.303.97.529.529 0 1 0 .303-.97zm2.477 1.323a.53.53 0 0 0-.214 1.02.53.53 0 1 0 .406-.98.55.55 0 0 0-.192-.04zm10.951 0a.53.53 0 0 0-.494.732v.001a.531.531 0 0 0 .981-.405l-.001-.001a.528.528 0 0 0-.486-.327zm-8.263.816a.531.531 0 1 0-.026 1.062.531.531 0 0 0 .026-1.062zm5.575.001a.531.531 0 1 0 .101 1.05.53.53 0 1 0-.101-1.05zM18 31.788a.53.53 0 1 0 0 1.06.53.53 0 0 0 0-1.06z" fill="#697686"/></svg>