<svg width="36" height="36" viewBox="0 0 36 36" xmlns="http://www.w3.org/2000/svg"><path d="M18 .5l-.249.144-3.812 2.2H9.25L6.906 6.905 2.845 9.249v4.689L.5 18l2.344 4.062v4.688l4.061 2.345 2.344 4.062h4.689L18 35.5l4.061-2.344h4.689l2.344-4.062 4.062-2.345v-4.688L35.5 18l-2.345-4.061V9.25l-4.062-2.344-2.344-4.061H22.06L18 .5zm0 1.149l3.793 2.19h4.382l2.19 3.795 3.795 2.19v4.381l2.19 3.794-2.19 3.794v4.381l-3.795 2.19-2.19 3.795h-4.382L18 34.349l-3.794-2.19H9.825l-2.19-3.795-3.795-2.19v-4.381l-2.19-3.794 2.19-3.794V9.824l3.795-2.19 2.19-3.795h4.381L18 1.649zm0 1.417a.498.498 0 1 0 0 .996.498.498 0 0 0 0-.996zM10.77 5a.498.498 0 1 0 .26.929.498.498 0 0 0-.26-.929zm14.425 0a.498.498 0 1 0 .273.066.516.516 0 0 0-.273-.066zM18 6.053a.498.498 0 1 0 0 .996.498.498 0 0 0 0-.996zm-2.232.219zm4.478 0a.497.497 0 1 0-.025.994.497.497 0 0 0 .025-.994zm2.147.651a.497.497 0 0 0-.202.957h.001a.497.497 0 1 0 .379-.919.474.474 0 0 0-.178-.038zm-8.772.001a.496.496 0 0 0-.462.688.497.497 0 0 0 .92-.381.498.498 0 0 0-.458-.307zm-1.977 1.057a.499.499 0 1 0 .409.222v-.001a.502.502 0 0 0-.409-.221zm12.726 0a.497.497 0 1 0-.02.993.497.497 0 0 0 .02-.993zM9.911 9.406a.499.499 0 1 0 .344.146.493.493 0 0 0-.344-.146zm16.192 0a.499.499 0 1 0 .345.85.499.499 0 0 0-.345-.85zm4.387.878a.498.498 0 0 0-.419.746.498.498 0 1 0 .419-.746zm-25.016.001a.498.498 0 1 0 .455.747.499.499 0 0 0-.455-.747zm22.052.855zm-19.036.001a.499.499 0 0 0-.286.912.498.498 0 0 0 .554-.828h-.001a.482.482 0 0 0-.267-.084zm6.176.969c-1.462 0-2.474 1.136-2.474 2.769 0 1.634 1.019 2.77 2.474 2.769 1.462 0 2.474-1.136 2.474-2.769-.001-1.641-1.012-2.769-2.474-2.769zm6.51.225l-3.733 5.359-4.27 5.865h1.703l3.656-5.281 4.34-5.943h-1.696zm-13.744.785a.498.498 0 0 0-.201.957.497.497 0 1 0 .381-.919.504.504 0 0 0-.18-.038zm21.149 0a.498.498 0 0 0-.463.688.499.499 0 0 0 .92-.381.498.498 0 0 0-.457-.307zm-13.915.203c.654 0 1.058.583 1.058 1.548 0 .949-.42 1.563-1.058 1.563-.638 0-1.058-.615-1.058-1.563s.412-1.548 1.058-1.548zm-7.884 1.946a.497.497 0 1 0 .086.008.625.625 0 0 0-.086-.008zm22.45 0a.497.497 0 0 0-.491.593.498.498 0 1 0 .978-.193.499.499 0 0 0-.487-.4zM3.563 17.502a.498.498 0 1 0 0 .996.498.498 0 0 0 0-.996zm2.987 0a.498.498 0 1 0 0 .996.498.498 0 0 0 0-.996zm22.899 0a.498.498 0 1 0 0 .996.498.498 0 0 0 0-.996zm2.987 0a.498.498 0 1 0 .002.996.498.498 0 0 0-.002-.996zm-11.105.745c-1.462 0-2.48 1.128-2.48 2.761 0 1.642 1.019 2.777 2.48 2.777 1.463 0 2.474-1.136 2.474-2.777 0-1.633-1.011-2.761-2.474-2.761zm0 1.213c.646 0 1.051.584 1.051 1.548 0 .949-.413 1.563-1.051 1.563-.638 0-1.058-.614-1.058-1.563.001-.948.413-1.548 1.058-1.548zm7.911.275a.498.498 0 1 0-.025.996.498.498 0 0 0 .025-.996zm-22.469.001a.498.498 0 0 0-.491.594.498.498 0 0 0 .584.393h.001a.498.498 0 0 0 .392-.585v-.001a.498.498 0 0 0-.486-.401zm.653 2.147a.496.496 0 0 0-.463.688.496.496 0 1 0 .919-.38.498.498 0 0 0-.456-.308zm21.163 0a.499.499 0 0 0-.201.958.496.496 0 0 0 .649-.27l.001-.001a.498.498 0 0 0-.449-.687zm-1.06 1.979a.498.498 0 1 0 .405.774l.001-.001a.497.497 0 0 0-.406-.773zm-19.043.001a.498.498 0 1 0 .409.221.497.497 0 0 0-.409-.221zm-3 .857a.498.498 0 1 0 .443.249.498.498 0 0 0-.443-.249zm24.992.002a.498.498 0 1 0 .274.066l-.001-.001a.504.504 0 0 0-.273-.065zm-20.568.876a.498.498 0 1 0-.013.997.498.498 0 0 0 .013-.997zm16.193.001a.499.499 0 1 0 .344.85.499.499 0 0 0-.344-.85zm-1.736 1.422a.497.497 0 1 0 .408.222.491.491 0 0 0-.408-.222zm-12.718 0a.498.498 0 1 0-.018.996.498.498 0 0 0 .018-.996zm1.98 1.059a.497.497 0 0 0-.201.957.497.497 0 1 0 .381-.92.503.503 0 0 0-.18-.037zm8.757 0a.498.498 0 0 0-.464.687.499.499 0 0 0 .92-.38.498.498 0 0 0-.456-.307zm-6.606.652a.498.498 0 0 0-.11.985.496.496 0 1 0 .193-.976.458.458 0 0 0-.083-.009zm4.456 0zm-2.236.22a.498.498 0 1 0 0 .996.498.498 0 0 0 0-.996zm7.205 1.052zm-14.448.002a.499.499 0 0 0-.225.928v.001a.498.498 0 1 0 .225-.929zM18 31.938a.498.498 0 1 0 0 .996.498.498 0 0 0 0-.996z" fill="#697686"/></svg>