<svg width="32" height="36" viewBox="0 0 32 36" xmlns="http://www.w3.org/2000/svg"><path d="M3.581.5v1.129H.194v32.742h3.387V35.5h28.226V8.734L23.573.5H3.581zM4.71 1.629h18.065v7.903h7.903v24.839H4.71V1.629zm19.194.798l5.976 5.976h-5.976V2.427zm-22.581.331h2.258v30.484H1.323V2.758zm6.209 0a.564.564 0 1 0 0 1.128.564.564 0 0 0 0-1.128zm0 2.258a.564.564 0 1 0 0 1.128.564.564 0 0 0 0-1.128zm0 2.258a.563.563 0 1 0-.001 1.127.563.563 0 0 0 .001-1.127zm0 2.258a.564.564 0 1 0 0 1.128.564.564 0 0 0 0-1.128zm0 2.259a.563.563 0 1 0-.001 1.127.563.563 0 0 0 .001-1.127zm0 2.257a.564.564 0 1 0 0 1.128.564.564 0 0 0 0-1.128zm3.388.565v1.129h15.242v-1.129H10.92zm-3.388 1.694a.563.563 0 1 0-.001 1.127.563.563 0 0 0 .001-1.127zM10.92 18v1.129h12.984V18H10.92zm-3.388.564a.564.564 0 1 0 0 1.128.564.564 0 0 0 0-1.128zm0 2.258a.565.565 0 1 0 .001 1.13.565.565 0 0 0-.001-1.13zm3.388.565v1.13h15.242v-1.13H10.92zm-3.388 1.694a.564.564 0 1 0 0 1.128.564.564 0 0 0 0-1.128zm3.388 1.693v1.129h12.984v-1.129H10.92zm-3.388.565a.564.564 0 1 0 0 1.128.564.564 0 0 0 0-1.128zm0 2.258a.564.564 0 1 0 0 1.128.564.564 0 0 0 0-1.128zm0 2.257a.565.565 0 1 0 .001 1.13.565.565 0 0 0-.001-1.13zm0 2.259a.564.564 0 1 0 0 1.128.564.564 0 0 0 0-1.128z" fill="#697686"/></svg>