<svg width="36" height="36" viewBox="0 0 36 36" xmlns="http://www.w3.org/2000/svg"><title>inner1</title><path d="M18 .5C8.341.5.5 8.341.5 18c0 9.658 7.841 17.5 17.5 17.5 9.658 0 17.5-7.842 17.5-17.5C35.5 8.341 27.658.5 18 .5zm0 1.061c9.086 0 16.439 7.354 16.439 16.439 0 9.086-7.354 16.439-16.439 16.439S1.561 27.085 1.561 18 8.915 1.561 18 1.561zm0 1.06a1.061 1.061 0 1 0 0 2.122 1.061 1.061 0 0 0 0-2.122zm-3.7 1.018l-.038.001a.53.53 0 1 0 .038-.001zm7.402.002a.53.53 0 1 0 .142.018h-.001a.479.479 0 0 0-.141-.018zM10.829 5.07a.53.53 0 0 0-.448.794v.001a.531.531 0 1 0 .448-.795zm14.305.001a.53.53 0 1 0 .291.07h-.001a.525.525 0 0 0-.29-.07zM18 5.803a.53.53 0 1 0 0 1.06.53.53 0 0 0 0-1.06zM7.883 7.345a.53.53 0 1 0-.015 1.06.53.53 0 0 0 .015-1.06zm20.249 0a.53.53 0 1 0 .367.155.53.53 0 0 0-.367-.155zM18 7.924a.53.53 0 1 0 0 1.06.53.53 0 0 0 0-1.06zm3.814.165l-3.469 7.825a2.069 2.069 0 0 0-.345-.035A2.13 2.13 0 0 0 15.879 18 2.13 2.13 0 0 0 18 20.121c.391 0 .754-.114 1.07-.301l4.464 4.464.75-.75-4.465-4.464c.188-.316.302-.679.302-1.07 0-.668-.32-1.261-.809-1.651l3.471-7.831-.969-.429zm8.573 2.222a.53.53 0 1 0 .473.265l-.001-.001a.53.53 0 0 0-.472-.264zm-24.812.001a.53.53 0 1 0 .047 1.058.53.53 0 0 0-.047-1.058zm-1.41 3.453a.531.531 0 0 0-.133 1.042.53.53 0 1 0 .133-1.042zm27.685 0a.532.532 0 0 0-.532.667.53.53 0 1 0 .532-.667zM3.682 16.939a1.062 1.062 0 1 0 .001 2.123 1.062 1.062 0 0 0-.001-2.123zm14.318 0c.592 0 1.061.469 1.061 1.061s-.469 1.061-1.061 1.061A1.053 1.053 0 0 1 16.939 18c0-.592.469-1.061 1.061-1.061zm14.319 0a1.061 1.061 0 1 0 0 2.122 1.061 1.061 0 0 0 0-2.122zm-25.985.531a.53.53 0 1 0 0 1.06.53.53 0 0 0 0-1.06zm2.121 0a.53.53 0 1 0 0 1.06.53.53 0 0 0 0-1.06zm19.091 0a.53.53 0 1 0 0 1.06.53.53 0 0 0 0-1.06zm2.121 0a.53.53 0 1 0 0 1.06.53.53 0 0 0 0-1.06zM4.19 21.176a.53.53 0 0 0-.533.667v.001a.53.53 0 1 0 .533-.668zm27.635.001a.531.531 0 1 0 .01 1.062.531.531 0 0 0-.01-1.062zM5.588 24.629a.53.53 0 1 0 .277.989h.001a.532.532 0 0 0 .194-.725v-.001a.534.534 0 0 0-.472-.263zm24.786.001a.532.532 0 1 0 .484.797.53.53 0 0 0-.193-.725l-.001-.001a.517.517 0 0 0-.29-.071zM18 27.016a.53.53 0 1 0 0 1.06.53.53 0 0 0 0-1.06zm-10.117.578a.531.531 0 1 0-.012 1.062.531.531 0 0 0 .012-1.062zm20.249 0a.53.53 0 1 0 .367.156.523.523 0 0 0-.367-.156zM18 29.137a.53.53 0 1 0 0 1.06.53.53 0 0 0 0-1.06zm7.146.732a.53.53 0 1 0 .473.265v-.001a.533.533 0 0 0-.473-.264zm-14.331.002a.531.531 0 0 0-.24.989h.001a.53.53 0 1 0 .239-.989zM18 31.258a1.061 1.061 0 1 0 0 2.122 1.061 1.061 0 0 0 0-2.122zm-3.711.043a.531.531 0 0 0-.133 1.042.53.53 0 1 0 .133-1.042zm7.437 0z" fill="#697686"/></svg>