<svg width="36" height="34" viewBox="0 0 36 34" xmlns="http://www.w3.org/2000/svg"><title>inner7</title><path d="M10.046.562a2.659 2.659 0 0 0-2.651 2.651V16.47h-.53a1.061 1.061 0 1 0 0 2.122h22.272a1.061 1.061 0 1 0 0-2.122h-.53V3.213A2.66 2.66 0 0 0 25.955.562H10.046zm0 1.06h11.667v15.909H8.455V3.213c0-.885.706-1.591 1.591-1.591zm13.787 0h2.121c.885 0 1.592.706 1.592 1.591v14.318h-3.713V1.622zm-4.242 2.121a.53.53 0 1 0 0 1.06.53.53 0 0 0 0-1.06zm-17.5 1.061A1.6 1.6 0 0 0 .5 6.395v20.151c0 .873.719 1.591 1.591 1.591h11.612l-.425 4.242h-2.172a.53.53 0 0 0-.016 1.061h13.803a.53.53 0 0 0 .016-1.06h-2.187l-.424-4.242h11.61a1.6 1.6 0 0 0 1.591-1.591V6.396a1.6 1.6 0 0 0-1.591-1.591h-4.242v1.061h4.242c.3 0 .53.231.53.53v20.151c0 .3-.23.531-.53.531H2.09c-.3 0-.53-.231-.53-.531V6.396c0-.299.23-.53.53-.53h4.243V4.805H2.091v-.001zm17.5 1.06a.53.53 0 1 0 0 1.06.53.53 0 0 0 0-1.06zm0 2.121a.53.53 0 1 0 0 1.06.53.53 0 0 0 0-1.06zm0 2.122a.53.53 0 1 0 0 1.06.53.53 0 0 0 0-1.06zM3.152 23.895a.53.53 0 1 0 0 1.06.53.53 0 0 0 0-1.06zm2.121 0a.53.53 0 1 0-.001 1.061.53.53 0 0 0 .001-1.061zm2.121 0a.53.53 0 1 0 0 1.06.53.53 0 0 0 0-1.06zm2.121 0a.53.53 0 1 0 0 1.06.53.53 0 0 0 0-1.06zm2.121 0a.53.53 0 1 0 0 1.06.53.53 0 0 0 0-1.06zm2.122 0a.53.53 0 1 0-.001 1.061.53.53 0 0 0 .001-1.061zm2.121 0a.53.53 0 1 0 0 1.06.53.53 0 0 0 0-1.06zm2.121 0a.53.53 0 1 0 0 1.06.53.53 0 0 0 0-1.06zm2.121 0a.53.53 0 1 0 0 1.06.53.53 0 0 0 0-1.06zm2.121 0a.53.53 0 1 0 0 1.06.53.53 0 0 0 0-1.06zm2.122 0a.53.53 0 1 0 0 1.06.53.53 0 0 0 0-1.06zm2.121 0a.53.53 0 1 0 0 1.06.53.53 0 0 0 0-1.06zm2.122 0a.53.53 0 1 0 0 1.06.53.53 0 0 0 0-1.06zm2.121 0a.53.53 0 1 0 0 1.06.53.53 0 0 0 0-1.06zm2.121 0a.53.53 0 1 0 0 1.06.53.53 0 0 0 0-1.06zm-18.081 4.242h6.465l.425 4.242h-7.314l.424-4.242z" fill="#697686"/></svg>