<svg width="36" height="31" viewBox="0 0 36 31" xmlns="http://www.w3.org/2000/svg"><path d="M.5.776v24H1c14.451 0 29.819 5.966 29.819 5.966l.682.266v-4.736a72.25 72.25 0 0 1 1.857.485l.642.19v-6.17h1.501V.776H.5zm1 1.001h33v18h-33v-18zm4.499.999a.501.501 0 1 0 .002 1.002A.501.501 0 0 0 6 2.776zm1.501 0a.5.5 0 1 0 0 1 .5.5 0 0 0 0-1zm1.5 0a.501.501 0 1 0 .002 1.002A.501.501 0 0 0 9 2.776zm1.5 0a.5.5 0 1 0 0 1 .5.5 0 0 0 0-1zm1.5 0a.5.5 0 1 0 0 1 .5.5 0 0 0 0-1zm1.499 0a.501.501 0 1 0 .002 1.002.501.501 0 0 0-.002-1.002zm1.501 0a.501.501 0 1 0 .002 1.002A.501.501 0 0 0 15 2.776zm1.5 0a.501.501 0 0 0 0 1.001.5.5 0 1 0 0-1.001zm1.5 0a.5.5 0 1 0 0 1 .5.5 0 0 0 0-1zm1.5 0a.503.503 0 0 0-.501.501.501.501 0 1 0 .501-.501zm1.499 0a.5.5 0 1 0 .004 1.002.5.5 0 0 0-.004-1.002zm1.5 0a.5.5 0 0 0 0 1.001.501.501 0 0 0 0-1.001zm1.501 0a.502.502 0 0 0 0 1.001.501.501 0 0 0 0-1.001zm1.5 0a.501.501 0 1 0 .002 1.002.501.501 0 0 0-.002-1.002zm1.5 0a.501.501 0 0 0 0 1.001.5.5 0 1 0 0-1.001zm1.499 0c-.274 0-.5.225-.5.501 0 .274.226.5.5.5a.501.501 0 0 0 0-1.001zm1.501 0a.501.501 0 1 0 .002 1.002A.501.501 0 0 0 30 2.776zM5.5 4.277a.5.5 0 1 0 0 1 .5.5 0 0 0 0-1zm25 0a.5.5 0 0 0 0 .999.5.5 0 0 0 0-.999zm-26 1a.5.5 0 1 0 0 1 .5.5 0 0 0 0-1zm13.5 0a5.506 5.506 0 0 0-5.5 5.5c0 3.032 2.468 5.5 5.5 5.5a5.507 5.507 0 0 0 5.499-5.5c0-3.032-2.468-5.5-5.499-5.5zm13.5 0a.5.5 0 1 0 0 1 .5.5 0 0 0 0-1zm-28.5.5zm29.999 0zM18 6.277a4.492 4.492 0 0 1 4.499 4.5A4.49 4.49 0 0 1 18 15.276a4.491 4.491 0 0 1-4.501-4.499c0-2.491 2.01-4.5 4.501-4.5zm-15 1a.5.5 0 1 0 0 1 .5.5 0 0 0 0-1zm29.999 0a.5.5 0 1 0 .002 1.002.5.5 0 0 0-.002-1.002zM3 8.777a.5.5 0 1 0 0 1 .5.5 0 0 0 0-1zm4.5 0c-1.099 0-2 .901-2 1.999 0 1.099.901 1.999 2 1.999 1.098 0 1.999-.9 1.999-1.999A2.007 2.007 0 0 0 7.5 8.777zm20.499 0A2.007 2.007 0 0 0 26 10.776c0 1.099.901 1.999 1.999 1.999 1.099 0 2-.9 2-1.999a2.006 2.006 0 0 0-2-1.999zm5 0A.5.5 0 1 0 33 9.778a.5.5 0 0 0 0-1.001zm-25.499 1c.558 0 1 .442 1 1 0 .559-.442 1-1 1a.99.99 0 0 1-1-1c0-.557.442-1 1-1zm20.499 0c.559 0 1 .442 1 1 0 .559-.441 1-1 1a.991.991 0 0 1-.999-1c0-.557.443-1 .999-1zM3 10.277zm29.999 0zM3 11.777a.5.5 0 1 0 0 1 .5.5 0 0 0 0-1zm29.999 0zM3 13.277a.5.5 0 1 0 0 1 .5.5 0 0 0 0-1zm29.999 0a.5.5 0 0 0-.5.5.501.501 0 0 0 1.001 0 .5.5 0 0 0-.501-.5zM3 14.777a.5.5 0 1 0 .001 1.001A.5.5 0 0 0 3 14.777zm29.999 0a.501.501 0 1 0 .002.998.501.501 0 0 0-.002-.998zM4.5 15.276a.502.502 0 0 0 0 1.001.5.5 0 0 0 0-1.001zm27 0a.502.502 0 0 0 0 1.001.502.502 0 0 0 0-1.001zm-26 1.001a.5.5 0 1 0 0 1 .5.5 0 0 0 0-1zm25 0zm-24.501 1.5a.5.5 0 1 0 0 1 .5.5 0 0 0 0-1zm1.501 0a.5.5 0 1 0 0 1 .5.5 0 0 0 0-1zm1.5 0a.5.5 0 1 0 0 1 .5.5 0 0 0 0-1zm1.5 0a.5.5 0 1 0 0 1 .5.5 0 0 0 0-1zm1.5 0a.5.5 0 1 0 0 1 .5.5 0 0 0 0-1zm1.499 0a.5.5 0 1 0 0 1 .5.5 0 0 0 0-1zm1.501 0a.5.5 0 1 0 0 1 .5.5 0 0 0 0-1zm1.5 0a.5.5 0 1 0 0 1 .5.5 0 0 0 0-1zm1.5 0a.5.5 0 1 0 0 1 .5.5 0 0 0 0-1zm1.5 0a.502.502 0 0 0-.501.5.501.501 0 0 0 1.001 0 .5.5 0 0 0-.5-.5zm1.499 0a.5.5 0 1 0 .002 1 .5.5 0 0 0-.002-1zm1.5 0a.5.5 0 1 0 .002 1 .5.5 0 0 0-.002-1zm1.501 0a.5.5 0 0 0 0 1 .5.5 0 1 0 0-1zm1.5 0a.5.5 0 1 0 0 1 .5.5 0 0 0 0-1zm1.5 0a.5.5 0 1 0 0 1 .5.5 0 0 0 0-1zm1.499 0c-.274 0-.5.224-.5.5 0 .274.226.5.5.5a.499.499 0 1 0 0-1zm1.501 0a.5.5 0 1 0 0 1 .5.5 0 0 0 0-1zm-28.5 3H33v4.854c-1.632-.46-14.002-3.774-31.5-3.843v-1.011zm28.5 0a.5.5 0 1 0 0 1 .5.5 0 0 0 0-1zm-1 1.5c-.274 0-.5.225-.5.5s.226.5.5.5a.5.5 0 0 0 0-1zm-27.5.507c10.917.041 19.885 1.388 25.501 2.502a.5.5 0 0 0 .955.191 94.84 94.84 0 0 1 2.543.555v3.535c-1.779-.671-15.376-5.642-29-5.768l.001-1.015zm25 3.493a.5.5 0 0 0 0 1 .5.5 0 0 0 0-1z" fill="#697686"/></svg>