<svg width="36" height="36" viewBox="0 0 36 36" xmlns="http://www.w3.org/2000/svg"><path d="M18 .5C8.341.5.5 8.341.5 18c0 9.658 7.841 17.5 17.5 17.5 9.658 0 17.5-7.842 17.5-17.5C35.5 8.341 27.658.5 18 .5zm0 1.061c9.086 0 16.439 7.354 16.439 16.439 0 9.086-7.354 16.439-16.439 16.439S1.561 27.085 1.561 18 8.915 1.561 18 1.561zm0 1.59a.53.53 0 1 0 0 1.06.53.53 0 0 0 0-1.06zm2.807.275a.531.531 0 1 0-.024 1.062.531.531 0 0 0 .024-1.062zm-5.597.001a.526.526 0 0 0-.522.633.531.531 0 1 0 .522-.633zm-2.685.814a.53.53 0 0 0-.494.734.53.53 0 1 0 .98-.406.532.532 0 0 0-.486-.328zm10.965 0a.53.53 0 0 0-.214 1.02.53.53 0 1 0 .405-.98.535.535 0 0 0-.191-.04zM10.051 5.564zm15.913 0a.529.529 0 1 0 .431.825.53.53 0 0 0-.145-.736h-.001a.527.527 0 0 0-.285-.089zM7.883 7.345a.53.53 0 1 0-.015 1.06.53.53 0 0 0 .015-1.06zm20.249 0a.53.53 0 1 0 .367.155.53.53 0 0 0-.367-.155zm1.779 2.169zm-23.806.001a.529.529 0 0 0-.304.97.53.53 0 1 0 .304-.97zm9.745 0l.586 11.136h3.128l.025-.502.561-10.634h-4.3zm1.118 1.061h2.065l-.474 9.015h-1.116l-.475-9.015zm14.265 1.414a.53.53 0 0 0-.494.733.53.53 0 0 0 .98-.406.53.53 0 0 0-.486-.327zm-26.449.001a.53.53 0 0 0-.214 1.02.53.53 0 1 0 .406-.98.528.528 0 0 0-.192-.04zm27.262 2.685zm-28.074.001a.53.53 0 0 0-.118 1.05h.002a.531.531 0 1 0 .116-1.05zm-.29 2.793a.53.53 0 1 0 0 1.06.53.53 0 0 0 0-1.06zm28.637 0a.53.53 0 1 0 0 1.06.53.53 0 0 0 0-1.06zM3.96 20.263zm28.098 0a.531.531 0 1 0-.026 1.062.531.531 0 0 0 .026-1.062zM18 22.242a2.13 2.13 0 0 0-2.121 2.121c0 1.166.956 2.121 2.121 2.121a2.129 2.129 0 0 0 2.121-2.121A2.13 2.13 0 0 0 18 22.242zm13.24.706a.53.53 0 0 0-.215 1.019.53.53 0 0 0 .406-.979.518.518 0 0 0-.191-.04zm-26.464.001a.53.53 0 0 0-.494.732.53.53 0 1 0 .981-.405.53.53 0 0 0-.487-.327zM18 23.303c.592 0 1.061.469 1.061 1.061 0 .593-.469 1.061-1.061 1.061a1.053 1.053 0 0 1-1.061-1.061A1.053 1.053 0 0 1 18 23.303zm11.915 2.12a.531.531 0 1 0 .432.825v-.001a.53.53 0 0 0-.432-.824zm-23.813.001a.53.53 0 1 0-.011 1.058.53.53 0 0 0 .011-1.058zm1.781 2.17a.531.531 0 1 0-.012 1.062.531.531 0 0 0 .012-1.062zm20.249 0a.53.53 0 1 0 .367.156.523.523 0 0 0-.367-.156zm-18.076 1.78a.529.529 0 0 0-.303.97.529.529 0 1 0 .303-.97zm15.905 0zm-13.428 1.323a.53.53 0 0 0-.214 1.02.53.53 0 1 0 .406-.98.55.55 0 0 0-.192-.04zm10.951 0a.53.53 0 0 0-.494.732v.001a.531.531 0 0 0 .981-.405l-.001-.001a.528.528 0 0 0-.486-.327zm-8.263.816a.531.531 0 1 0-.026 1.062.531.531 0 0 0 .026-1.062zm5.575.001a.531.531 0 1 0 .101 1.05.53.53 0 1 0-.101-1.05zM18 31.788a.53.53 0 1 0 0 1.06.53.53 0 0 0 0-1.06z" fill="#697686"/></svg>