<svg width="39" height="34" viewBox="0 0 39 34" xmlns="http://www.w3.org/2000/svg"><path d="M32.365 2.372H5.942a3.573 3.573 0 0 0-3.57 3.569v15.324a3.573 3.573 0 0 0 3.57 3.57h3.173c.312 0 .617.126.837.346a1.2 1.2 0 0 1 .348.84v3.907l4.744-4.744c.219-.223.526-.349.841-.349h16.48a3.572 3.572 0 0 0 3.567-3.57V5.941a3.573 3.573 0 0 0-3.567-3.569zM11.22 16.377a2.856 2.856 0 1 1-.002-5.712 2.856 2.856 0 0 1 .002 5.712zm7.933 0a2.856 2.856 0 1 1 0-5.712 2.856 2.856 0 0 1 0 5.712zm7.934 0a2.856 2.856 0 1 1 .002-5.712 2.856 2.856 0 0 1-.002 5.712z" fill="#fff"/><path d="M32.365 0H5.942A5.941 5.941 0 0 0 0 5.941v15.324a5.94 5.94 0 0 0 5.942 5.94h1.986v5.587a1.186 1.186 0 0 0 1.182 1.186c.311 0 .615-.121.841-.349l6.421-6.424h15.992a5.94 5.94 0 0 0 5.939-5.94l.002-15.324A5.94 5.94 0 0 0 32.365 0zm3.568 21.266a3.572 3.572 0 0 1-3.567 3.57h-16.48c-.314 0-.622.126-.841.349L10.3 29.929v-3.907a1.2 1.2 0 0 0-.348-.84 1.191 1.191 0 0 0-.837-.346H5.942a3.573 3.573 0 0 1-3.57-3.57V5.941a3.573 3.573 0 0 1 3.57-3.569h26.423a3.573 3.573 0 0 1 3.567 3.569v15.325h.001z" fill="#4292da"/><path d="M11.22 10.665a2.856 2.856 0 1 0-.002 5.712 2.856 2.856 0 0 0 .002-5.712z" fill="#4292da"/><circle fill="#4292da" cx="19.153" cy="13.521" r="2.856"/><circle fill="#4292da" cx="27.087" cy="13.521" r="2.856"/></svg>