<svg width="27" height="27" viewBox="0 0 27 27" xmlns="http://www.w3.org/2000/svg"><title>search</title><g fill="none" fill-rule="evenodd"><path d="M25.806 24.173l-6.057-6.057a10.915 10.915 0 0 0 2.234-6.615C21.983 5.438 17.072.528 11.01.526 4.948.528.037 5.438.037 11.501c0 6.059 4.911 10.972 10.973 10.972 2.488 0 4.775-.838 6.616-2.233l6.058 6.056a1.5 1.5 0 1 0 2.122-2.123z" fill="#4292da"/><path d="M3.038 11.501a7.985 7.985 0 0 1 7.973-7.975 7.985 7.985 0 0 1 7.973 7.975 7.984 7.984 0 0 1-7.973 7.971 7.984 7.984 0 0 1-7.973-7.971z" fill="#FFF"/></g></svg>