<svg xmlns="http://www.w3.org/2000/svg" style="border: 0 !important; clip: rect(0 0 0 0) !important; height: 1px !important; margin: -1px !important; overflow: hidden !important; padding: 0 !important; position: absolute !important; width: 1px !important;" class="root-svg-symbols-element">
    <symbol id="arrow-left" viewBox="0 0 15 8">
      <path d="M14.242 3.819c0-.001 0-.001 0 0 .004-.01.002-.019.006-.028a.48.48 0 0 0 .033-.16c0-.048-.016-.091-.027-.135-.006-.019-.004-.038-.012-.056-.018-.04-.045-.073-.07-.107-.014-.019-.021-.04-.039-.058 0 0-.002 0-.002-.002L11.068.211a.5.5 0 0 0-.707.707l2.211 2.212H.588a.5.5 0 0 0 0 1h11.984l-2.211 2.21a.504.504 0 0 0 0 .707.504.504 0 0 0 .708 0l3.063-3.063.002-.001a.483.483 0 0 0 .108-.164z"/>
    </symbol>
    <symbol id="heart" viewBox="0 0 21 18">
      <title>heart</title><path d="M20.115 5.332A5.166 5.166 0 0 0 14.948.166a5.16 5.16 0 0 0-4.471 2.587 5.164 5.164 0 1 0-7.936 6.406l7.936 7.934L18.41 9.16a5.15 5.15 0 0 0 1.705-3.828z" fill="#6cb44d"/>
    </symbol>
    <symbol id="i" viewBox="0 0 85 80">
      <path d="M79.568 37.677C78.436 16.687 61.112.001 39.838 0 17.836.001.001 17.835 0 39.838.001 61.84 17.836 79.675 39.838 79.677v-2.756c-10.245 0-19.508-4.148-26.223-10.861-6.712-6.715-10.86-15.977-10.86-26.222 0-10.245 4.148-19.507 10.861-26.222C20.331 6.904 29.594 2.755 39.838 2.755c10.244 0 19.507 4.148 26.223 10.861C72.295 19.853 76.27 28.3 76.813 37.677H72.18l6.125 11.839 6.134-11.839h-4.871z"/>
    </symbol>
    <symbol id="lock" viewBox="0 0 14 19">
      <title>lock</title><path d="M12.493 7.784H4.33V4.927A2.53 2.53 0 0 1 6.858 2.4a2.53 2.53 0 0 1 2.527 2.527v1.354h1.82V4.927A4.351 4.351 0 0 0 6.857.579a4.351 4.351 0 0 0-4.35 4.348v2.857H.384V18.68h12.945V7.784h-.836zm-5.028 6.123v2.283H6.251v-2.283a1.864 1.864 0 0 1 .607-3.631 1.864 1.864 0 1 1 .607 3.631z" fill="#fff"/>
    </symbol>
    <symbol id="logo" viewBox="0 0 321 75">
      <title>logo</title><g fill="none"><path fill="#3D97D3" d="M8.834 74.251v-23.57H.355v-5.436H23.49v5.436h-8.437v23.57zM25.016 59.77c0-8.741 6.393-15.003 15.134-15.003 8.784 0 15.177 6.262 15.177 15.003S48.934 74.773 40.15 74.773c-8.742-.001-15.134-6.262-15.134-15.003zm23.962 0c0-5.436-3.479-9.523-8.828-9.523-5.35 0-8.785 4.087-8.785 9.523 0 5.393 3.436 9.524 8.785 9.524 5.348-.001 8.828-4.132 8.828-9.524zm10.703 14.481V45.245h13.568c6.306 0 9.741 4.262 9.741 9.35 0 5.044-3.479 9.35-9.741 9.35h-7.393v10.307h-6.175v-.001zm17.004-19.656c0-2.436-1.826-3.914-4.262-3.914h-6.566v7.828h6.566c2.435-.001 4.262-1.523 4.262-3.914z"/><path d="M103.217 74.251L97.52 63.944h-4.522v10.307h-6.176V45.245h13.568c6.045 0 9.741 3.958 9.741 9.35 0 5.131-3.218 7.871-6.35 8.61l6.523 11.046h-7.087zm.608-19.656c0-2.436-1.87-3.914-4.349-3.914h-6.479v7.828h6.479c2.479-.001 4.349-1.479 4.349-3.914zm10.963 8.088V45.245h6.263v17.221c0 4.044 2.348 6.828 6.827 6.828s6.784-2.783 6.784-6.828V45.245h6.306V62.64c0 7.219-4.262 12.133-13.09 12.133s-13.09-4.958-13.09-12.09zm29.925 7.48l3.349-4.697a12.718 12.718 0 0 0 9.219 3.914c3.393 0 5.045-1.565 5.045-3.218 0-5.131-16.699-1.609-16.699-12.524 0-4.827 4.175-8.828 11.002-8.828 4.61 0 8.438 1.392 11.308 4.044l-3.436 4.522c-2.349-2.174-5.479-3.175-8.437-3.175-2.653 0-4.132 1.174-4.132 2.914 0 4.609 16.656 1.522 16.656 12.35 0 5.306-3.783 9.306-11.611 9.306-5.567.001-9.568-1.868-12.264-4.608z" fill="#6A7686"/><path d="M171.375 59.77c0-8.915 6.74-15.003 15.438-15.003 6.393 0 10.09 3.479 12.134 7.088l-5.306 2.609c-1.218-2.349-3.826-4.218-6.828-4.218-5.262 0-9.088 4.044-9.088 9.523s3.826 9.524 9.088 9.524c3.002 0 5.61-1.827 6.828-4.218l5.306 2.565c-2.087 3.61-5.741 7.132-12.134 7.132-8.698 0-15.438-6.087-15.438-15.002zm47.668 14.481l-5.697-10.307h-4.523v10.307h-6.175V45.245h13.568c6.044 0 9.741 3.958 9.741 9.35 0 5.131-3.219 7.871-6.35 8.61l6.523 11.046h-7.087zm.608-19.656c0-2.436-1.87-3.914-4.349-3.914h-6.48v7.828h6.48c2.479-.001 4.349-1.479 4.349-3.914zm10.964 19.656V45.245h20.525v5.436h-14.35v6.132h14.046v5.436H236.79v6.566h14.351v5.436zm25.357 0V45.245h11.438c9.089 0 15.395 5.784 15.395 14.525s-6.306 14.481-15.395 14.481h-11.438zm20.526-14.481c0-5.131-3.131-9.089-9.089-9.089h-5.263v18.134h5.263c5.74 0 9.089-4.131 9.089-9.045zm10.703 14.481V45.245h6.175v29.006zm18.613 0v-23.57h-8.479v-5.436h23.136v5.436h-8.438v23.57z" fill="#3D97D3"/><path fill="#EE2964" d="M144.912 19.969h6.969V30h-6.969z"/><path fill="#697686" d="M168.943 0h6.969v30h-6.969z"/><path fill="#3B97D3" d="M156.912 9.969h6.969V30h-6.969z"/></g>
    </symbol>
    <symbol id="pin" viewBox="0 0 15 21">
      <title>pin</title><path d="M7.041.349a7.04 7.04 0 0 0-6.525 9.68c.079.195.167.384.263.569.154.3.328.587.522.859l5.74 9.452 5.739-9.45a7.073 7.073 0 0 0 .785-1.43c.33-.815.517-1.705.517-2.639A7.041 7.041 0 0 0 7.041.349zm0 4.483a2.558 2.558 0 1 1 0 5.114 2.558 2.558 0 0 1 0-5.114z" fill="#aab0ba"/>
    </symbol></svg>